<?xml version="1.0" encoding="UTF-8" standalone="no" ?>
<!DOCTYPE svg PUBLIC "-//W3C//DTD SVG 1.1//EN" "http://www.w3.org/Graphics/SVG/1.1/DTD/svg11.dtd">
<svg xmlns="http://www.w3.org/2000/svg" xmlns:xlink="http://www.w3.org/1999/xlink" version="1.1" width="512" height="512" viewBox="0 0 500 500" xml:space="preserve">
<desc>Created with Fabric.js 4.6.0</desc>
<defs>
</defs>
<g transform="matrix(0.79 0 0 0.79 250 250)" id="ao1VQ7SUlG3u4E4yjr9GI"  >
<path style="stroke: rgb(119,211,19); stroke-width: 0; stroke-dasharray: none; stroke-linecap: butt; stroke-dashoffset: 0; stroke-linejoin: miter; stroke-miterlimit: 4; fill: rgb(226,220,220); fill-rule: nonzero; opacity: 1;" vector-effect="non-scaling-stroke"  transform=" translate(0, 0)" d="M 0 -215 C 118.68 -215 215 -118.68 215 0 C 215 118.68 118.68 215 0 215 C -118.68 215 -215 118.68 -215 0 C -215 -118.68 -118.68 -215 0 -215 z" stroke-linecap="round" />
</g>
<g transform="matrix(0.01 0 0 -0.01 249.77 250.77)" id="KhyScI1iqxvAZ32Qkf0Gw"  >
<path style="stroke: rgb(0,0,0); stroke-width: 1.7; stroke-dasharray: none; stroke-linecap: butt; stroke-dashoffset: 0; stroke-linejoin: miter; stroke-miterlimit: 4; fill: rgb(0,131,0); fill-rule: nonzero; opacity: 1;" vector-effect="non-scaling-stroke"  transform=" translate(-17217.5, -17209.12)" d="M 16587 34349 C 14616 34276 12685 33870 10880 33152 C 10036 32816 9186 32395 8413 31932 C 6561 30822 4933 29375 3619 27670 C 1584 25031 368 21876 110 18570 C 70 18051 65 17906 65 17205 C 65 16505 69 16379 110 15850 C 367 12546 1584 9389 3619 6750 C 4933 5045 6561 3598 8413 2488 C 9092 2081 9864 1691 10595 1385 C 13027 367 15661 -73 18315 95 C 20221 216 22080 650 23835 1385 C 24566 1691 25338 2081 26017 2488 C 27870 3598 29496 5044 30811 6750 C 32888 9444 34110 12670 34335 16055 C 34362 16463 34370 16725 34370 17210 C 34370 17694 34362 17956 34335 18365 C 34110 21748 32888 24976 30811 27670 C 30007 28713 29069 29677 28044 30511 C 26694 31611 25170 32507 23550 33152 C 21529 33956 19356 34367 17165 34358 C 16956 34358 16696 34354 16587 34349 z M 16927 31161 C 16924 31149 16951 31107 17012 31029 C 17502 30408 17946 29621 18305 28737 C 19320 26237 19690 23040 19385 19395 C 19149 16573 18518 13482 17505 10191 C 17447 10002 17401 9846 17403 9844 C 17404 9842 17477 9981 17564 10153 C 18994 12963 20551 15559 22155 17810 C 24173 20640 26193 22802 28120 24191 C 28581 24523 29057 24824 29517 25074 C 29659 25151 29680 25155 29680 25108 C 29680 25021 29609 24623 29543 24345 C 29216 22943 28503 21279 27527 19640 C 25458 16164 22204 12663 17982 9370 C 17860 9275 17762 9195 17764 9193 C 17766 9190 17921 9271 18107 9373 C 19066 9896 20106 10418 21050 10847 C 23766 12084 26144 12821 28028 13010 C 28373 13044 28487 13051 28855 13057 C 29315 13064 29572 13051 29960 12999 C 30123 12977 30150 12969 30150 12944 C 30150 12919 30035 12756 29940 12646 C 29629 12285 29090 11882 28420 11508 C 26755 10578 24161 9756 20935 9136 C 20031 8962 18722 8743 17986 8643 C 17905 8632 17867 8623 17881 8619 C 17894 8616 17991 8610 18095 8606 C 18696 8584 19600 8508 20265 8424 C 22459 8147 23926 7643 24527 6960 C 24615 6861 24720 6707 24720 6679 C 24720 6653 24697 6646 24560 6626 C 24206 6577 23694 6576 23170 6626 C 21677 6767 19839 7295 17816 8166 C 17645 8239 17505 8298 17504 8297 C 17501 8292 17438 7831 17415 7640 C 17311 6766 17266 6006 17266 5110 C 17266 4422 17285 4007 17340 3462 L 17360 3268 L 17325 3209 C 17246 3081 17162 3020 17060 3020 C 16943 3020 16845 3102 16745 3283 L 16709 3349 L 16709 3557 C 16711 3832 16693 5210 16680 5820 C 16656 6965 16623 7739 16585 8073 C 16562 8272 16585 8259 16402 8175 C 16203 8083 15881 7945 15584 7824 C 13989 7177 12488 6749 11260 6591 C 10940 6549 10774 6538 10418 6533 C 9956 6526 9718 6544 9390 6610 C 9252 6638 9027 6700 9013 6714 C 8999 6728 9044 6794 9122 6877 C 9719 7500 11220 8007 13262 8274 C 14027 8375 14962 8452 15800 8485 C 15880 8488 15988 8493 16040 8497 L 16135 8503 L 15910 8536 C 13089 8950 10208 9625 8095 10367 C 6041 11088 4587 11877 3668 12769 C 3566 12868 3560 12875 3560 12914 C 3560 12951 3561 12953 3576 12938 C 3590 12924 3641 12923 4074 12927 C 4561 12933 4915 12924 5340 12895 C 8127 12705 11045 11887 13735 10543 C 14487 10167 15275 9722 15948 9292 C 16021 9246 16083 9210 16085 9212 C 16088 9214 15980 9309 15847 9422 C 13862 11108 11881 12994 10280 14720 C 6978 18283 5021 21399 4546 23849 C 4494 24116 4496 24093 4525 24120 C 4550 24143 4550 24143 4550 24123 C 4550 24106 4590 24079 4747 23989 C 6957 22732 9238 20906 11115 18889 C 13135 16720 14730 14321 15876 11727 C 16056 11320 16266 10807 16386 10481 C 16407 10424 16426 10382 16427 10387 C 16429 10392 16410 10475 16385 10571 C 16181 11345 15952 12337 15780 13200 C 14925 17474 14704 21554 15140 25005 C 15408 27123 15901 28984 16637 30660 C 16775 30974 16868 31164 16887 31172 C 16919 31184 16933 31181 16927 31161 z" stroke-linecap="round" />
</g>
</svg>