<?xml version="1.0" standalone="no"?>
<!DOCTYPE svg PUBLIC "-//W3C//DTD SVG 20010904//EN"
 "http://www.w3.org/TR/2001/REC-SVG-20010904/DTD/svg10.dtd">
<svg version="1.0" xmlns="http://www.w3.org/2000/svg"
 width="3443.000000pt" height="3442.000000pt" viewBox="0 0 3443.000000 3442.000000"
 preserveAspectRatio="xMidYMid meet">

<g transform="translate(0.000000,3442.000000) scale(0.100000,-0.100000)"
fill="#000000" stroke="none">
<path d="M16587 34349 c-1971 -73 -3902 -479 -5707 -1197 -844 -336 -1694
-757 -2467 -1220 -1852 -1110 -3480 -2557 -4794 -4262 -2035 -2639 -3251
-5794 -3509 -9100 -40 -519 -45 -664 -45 -1365 0 -700 4 -826 45 -1355 257
-3304 1474 -6461 3509 -9100 1314 -1705 2942 -3152 4794 -4262 679 -407 1451
-797 2182 -1103 2432 -1018 5066 -1458 7720 -1290 1906 121 3765 555 5520
1290 731 306 1503 696 2182 1103 1853 1110 3479 2556 4794 4262 2077 2694
3299 5920 3524 9305 27 408 35 670 35 1155 0 484 -8 746 -35 1155 -225 3383
-1447 6611 -3524 9305 -804 1043 -1742 2007 -2767 2841 -1350 1100 -2874 1996
-4494 2641 -2021 804 -4194 1215 -6385 1206 -209 0 -469 -4 -578 -9z m340
-3188 c-3 -12 24 -54 85 -132 490 -621 934 -1408 1293 -2292 1015 -2500 1385
-5697 1080 -9342 -236 -2822 -867 -5913 -1880 -9204 -58 -189 -104 -345 -102
-347 1 -2 74 137 161 309 1430 2810 2987 5406 4591 7657 2018 2830 4038 4992
5965 6381 461 332 937 633 1397 883 142 77 163 81 163 34 0 -87 -71 -485 -137
-763 -327 -1402 -1040 -3066 -2016 -4705 -2069 -3476 -5323 -6977 -9545
-10270 -122 -95 -220 -175 -218 -177 2 -3 157 78 343 180 959 523 1999 1045
2943 1474 2716 1237 5094 1974 6978 2163 345 34 459 41 827 47 460 7 717 -6
1105 -58 163 -22 190 -30 190 -55 0 -25 -115 -188 -210 -298 -311 -361 -850
-764 -1520 -1138 -1665 -930 -4259 -1752 -7485 -2372 -904 -174 -2213 -393
-2949 -493 -81 -11 -119 -20 -105 -24 13 -3 110 -9 214 -13 601 -22 1505 -98
2170 -182 2194 -277 3661 -781 4262 -1464 88 -99 193 -253 193 -281 0 -26 -23
-33 -160 -53 -354 -49 -866 -50 -1390 0 -1493 141 -3331 669 -5354 1540 -171
73 -311 132 -312 131 -3 -5 -66 -466 -89 -657 -104 -874 -149 -1634 -149
-2530 0 -688 19 -1103 74 -1648 l20 -194 -35 -59 c-79 -128 -163 -189 -265
-189 -117 0 -215 82 -315 263 l-36 66 0 208 c2 275 -16 1653 -29 2263 -24
1145 -57 1919 -95 2253 -23 199 0 186 -183 102 -199 -92 -521 -230 -818 -351
-1595 -647 -3096 -1075 -4324 -1233 -320 -42 -486 -53 -842 -58 -462 -7 -700
11 -1028 77 -138 28 -363 90 -377 104 -14 14 31 80 109 163 597 623 2098 1130
4140 1397 765 101 1700 178 2538 211 80 3 188 8 240 12 l95 6 -225 33 c-2821
414 -5702 1089 -7815 1831 -2054 721 -3508 1510 -4427 2402 -102 99 -108 106
-108 145 0 37 1 39 16 24 14 -14 65 -15 498 -11 487 6 841 -3 1266 -32 2787
-190 5705 -1008 8395 -2352 752 -376 1540 -821 2213 -1251 73 -46 135 -82 137
-80 3 2 -105 97 -238 210 -1985 1686 -3966 3572 -5567 5298 -3302 3563 -5259
6679 -5734 9129 -52 267 -50 244 -21 271 25 23 25 23 25 3 0 -17 40 -44 197
-134 2210 -1257 4491 -3083 6368 -5100 2020 -2169 3615 -4568 4761 -7162 180
-407 390 -920 510 -1246 21 -57 40 -99 41 -94 2 5 -17 88 -42 184 -204 774
-433 1766 -605 2629 -855 4274 -1076 8354 -640 11805 268 2118 761 3979 1497
5655 138 314 231 504 250 512 32 12 46 9 40 -11z"/>
</g>
</svg>
